<?xml version="1.0" encoding="UTF-8"?>
<svg id="Layer_1" data-name="Layer 1" xmlns="http://www.w3.org/2000/svg" viewBox="0 0 100 100">
  <defs>
    <style>
      .cls-1 {
        fill: #fff;
      }

      .cls-2 {
        fill: #8a8a8a;
      }

      .cls-3 {
        fill: #c5c5c5;
      }
    </style>
  </defs>
  <path class="cls-1" d="M49.67,80.65c.05,0,.1,0,.15,0,.56,0,1.14-.21,1.66-.72,6.02-6.02,12.04-12.04,18.07-18.07,.86-.86,1.71-1.71,2.57-2.57,2.28-2.28-1.26-5.81-3.54-3.54-6.02,6.02-12.04,12.04-18.07,18.07l-.8,.8c-5.26-5.28-10.52-10.56-15.77-15.84-.84-.84-1.68-1.69-2.52-2.53-2.27-2.28-5.81,1.25-3.54,3.54l17.54,17.61c.84,.84,1.68,1.69,2.52,2.53,.53,.53,1.12,.73,1.69,.73,.01,0,.02,0,.04,0Z"/>
  <path class="cls-3" d="M49.67,63.37c.05,0,.1,0,.15,0,.56,0,1.14-.21,1.66-.72,6.02-6.02,12.04-12.04,18.07-18.07,.86-.86,1.71-1.71,2.57-2.57,2.28-2.28-1.26-5.81-3.54-3.54-6.02,6.02-12.04,12.04-18.07,18.07l-.8,.8c-5.26-5.28-10.52-10.56-15.77-15.84-.84-.84-1.68-1.69-2.52-2.53-2.27-2.28-5.81,1.25-3.54,3.54l17.54,17.61c.84,.84,1.68,1.69,2.52,2.53,.53,.53,1.12,.73,1.69,.73,.01,0,.02,0,.04,0Z"/>
  <path class="cls-2" d="M49.67,44.98c.05,0,.1,0,.15,0,.56,0,1.14-.21,1.66-.72,6.02-6.02,12.04-12.04,18.07-18.07,.86-.86,1.71-1.71,2.57-2.57,2.28-2.28-1.26-5.81-3.54-3.54-6.02,6.02-12.04,12.04-18.07,18.07l-.8,.8c-5.26-5.28-10.52-10.56-15.77-15.84-.84-.84-1.68-1.69-2.52-2.53-2.27-2.28-5.81,1.25-3.54,3.54,5.85,5.87,11.69,11.74,17.54,17.61,.84,.84,1.68,1.69,2.52,2.53,.53,.53,1.12,.73,1.69,.73,.01,0,.02,0,.04,0Z"/>
</svg>