<?xml version="1.0" encoding="UTF-8"?>
<svg id="Layer_1" data-name="Layer 1" xmlns="http://www.w3.org/2000/svg" viewBox="0 0 100 100">
  <defs>
    <style>
      .cls-1 {
        fill: #07082e;
      }
    </style>
  </defs>
  <path class="cls-1" d="M76.57,50.33c0-.05,0-.1,0-.15,0-.56-.21-1.14-.72-1.66-6.02-6.02-12.04-12.04-18.07-18.07-.86-.86-1.71-1.71-2.57-2.57-2.28-2.28-5.81,1.26-3.54,3.54l15.87,15.87H23.43v6h44.08c-4.28,4.26-8.55,8.51-12.83,12.77-.84,.84-1.69,1.68-2.53,2.52-2.28,2.27,1.25,5.81,3.54,3.54,5.87-5.85,11.74-11.69,17.61-17.54,.84-.84,1.69-1.68,2.53-2.52,.53-.53,.73-1.12,.73-1.69,0-.01,0-.02,0-.03Z"/>
</svg>