<?xml version="1.0" encoding="utf-8"?>
<!-- Generator: Adobe Illustrator 25.4.1, SVG Export Plug-In . SVG Version: 6.00 Build 0)  -->
<svg version="1.1" id="Layer_1" xmlns="http://www.w3.org/2000/svg" xmlns:xlink="http://www.w3.org/1999/xlink" x="0px" y="0px"
	 viewBox="0 0 100 100" style="enable-background:new 0 0 100 100;" xml:space="preserve">
<style type="text/css">
	.st0{fill:#07082E;}
</style>
<path class="st0" d="M62.8,50.3c0,0,0-0.1,0-0.2c0-0.6-0.2-1.1-0.7-1.7c-6-6-12-12-18.1-18.1c-0.9-0.9-1.7-1.7-2.6-2.6
	c-2.3-2.3-5.8,1.3-3.5,3.5c6,6,12,12,18.1,18.1l0.8,0.8c-5.3,5.3-10.6,10.5-15.8,15.8c-0.8,0.8-1.7,1.7-2.5,2.5
	c-2.3,2.3,1.2,5.8,3.5,3.5l17.6-17.5c0.8-0.8,1.7-1.7,2.5-2.5C62.6,51.5,62.8,50.9,62.8,50.3C62.8,50.4,62.8,50.4,62.8,50.3
	L62.8,50.3z"/>
</svg>
